<?xml version='1.0' encoding='iso-8859-1'?>
<!DOCTYPE svg PUBLIC '-//W3C//DTD SVG 1.1//EN' 'http://www.w3.org/Graphics/SVG/1.1/DTD/svg11.dtd'>
<!-- Uploaded to: SVG Repo, www.svgrepo.com, Generator: SVG Repo Mixer Tools -->
<svg fill="#dfdfdf" version="1.1" xmlns="http://www.w3.org/2000/svg" viewBox="0 0 297 297" xmlns:xlink="http://www.w3.org/1999/xlink" enable-background="new 0 0 297 297">
  <g>
    <path d="m64.045,174.994v-21.251h-18.206v21.251c0,5.027 4.076,9.103 9.103,9.103 5.027,0 9.103-4.076 9.103-9.103z"/>
    <path d="m258.934,246.627h-246.092c-4.755,0-8.609,3.854-8.609,8.609 0,4.755 3.854,8.609 8.609,8.609h246.093c4.755,0 8.609-3.854 8.609-8.609-0.001-4.755-3.855-8.609-8.61-8.609z"/>
    <path d="m217.935,66.79c-6.47,0-11.734,5.264-11.734,11.734 0,6.47 5.264,11.734 11.734,11.734 6.47,0 11.734-5.264 11.734-11.734 0-6.47-5.264-11.734-11.734-11.734z"/>
    <rect width="19.26" x="69.435" y="33.155" height="37.64"/>
    <path d="m246.97,33.155h-142.818v45.369c-1.42109e-14,4.268-3.46,7.729-7.729,7.729h-34.717c-4.268,0-7.729-3.46-7.729-7.729v-45.369h-8.433c-4.902,0-9.761,1.337-13.803,4.111-7.39,5.073-11.125,13.707-10.09,22.276l10.268,70.697c1.008,6.944 6.961,12.094 13.978,12.094h34.581c4.538,0 8.217-3.679 8.217-8.217 0-14.636 11.864-26.5 26.5-26.5h59.617c14.636,0 26.5,11.865 26.5,26.5v72.107c0,4.268-3.46,7.729-7.729,7.729h-184.669c-4.581,0-8.587,3.448-8.894,8.018-0.337,5.013 3.647,9.2 8.59,9.2h246.028c7.128,0 12.905-5.778 12.905-12.905v-164.537c5.68434e-14-11.362-9.211-20.573-20.573-20.573zm-29.035,72.56c-14.994,0-27.191-12.198-27.191-27.192s12.198-27.191 27.191-27.191c14.994,0 27.191,12.198 27.191,27.191s-12.198,27.192-27.191,27.192z"/>
    <path d="m291.14,88.356h-3.77v53.977h3.77c3.231,0 5.86-2.629 5.86-5.86v-42.257c0-3.231-2.629-5.86-5.86-5.86z"/>
  </g>
</svg>