<?xml version="1.0" standalone="no"?>
<!DOCTYPE svg PUBLIC "-//W3C//DTD SVG 20010904//EN"
 "http://www.w3.org/TR/2001/REC-SVG-20010904/DTD/svg10.dtd">
<svg version="1.0" xmlns="http://www.w3.org/2000/svg"
 width="2560.000000pt" height="2560.000000pt" viewBox="0 0 2560.000000 2560.000000"
 preserveAspectRatio="xMidYMid meet">

<g transform="translate(0.000000,2560.000000) scale(0.100000,-0.100000)"
fill="#fff" stroke="none">
<path d="M12495 22759 c-1000 -28 -1995 -209 -2940 -536 -1093 -377 -2128
-949 -3000 -1657 -1481 -1203 -2564 -2742 -3178 -4521 -362 -1046 -539 -2113
-539 -3245 0 -1439 283 -2763 874 -4088 629 -1412 1613 -2685 2848 -3683 1105
-893 2432 -1551 3835 -1903 791 -198 1546 -289 2405 -289 447 0 702 14 1115
59 1712 186 3408 850 4792 1875 800 593 1516 1308 2110 2107 1034 1391 1700
3087 1887 4807 45 413 59 668 59 1115 0 445 -13 694 -59 1113 -198 1846 -959
3675 -2133 5127 -713 882 -1604 1669 -2541 2245 -869 534 -1763 911 -2782
1176 -854 221 -1805 324 -2753 298z m-3401 -5475 c3 -9 6 -425 6 -926 l0 -911
23 -45 c50 -102 124 -156 232 -171 100 -14 1364 -14 1460 0 73 10 118 33 174
88 17 17 31 34 31 39 0 5 10 22 23 38 l22 28 5 936 5 935 2855 0 c2953 0 2948
0 3026 -39 16 -8 58 -28 93 -45 104 -50 184 -115 256 -206 59 -74 81 -108 90
-135 4 -14 13 -32 20 -40 7 -8 16 -31 20 -50 4 -19 15 -46 24 -59 15 -23 16
-308 16 -3421 l0 -3395 -22 -40 c-13 -22 -23 -43 -23 -47 0 -30 -155 -197
-183 -198 -5 0 -20 -9 -34 -20 -14 -11 -35 -20 -47 -20 -12 0 -33 -8 -46 -18
-24 -16 -276 -17 -4955 -17 l-4930 0 -50 24 c-70 34 -158 127 -179 187 -21 62
-21 171 1 237 23 70 117 164 193 192 55 20 86 20 3765 25 l3710 5 40 25 c63
39 78 52 117 100 30 37 38 58 48 120 15 100 8 3020 -8 3095 -11 55 -36 133
-56 180 -27 60 -36 80 -45 95 -6 8 -16 27 -23 42 -45 93 -184 247 -285 316
-93 63 -157 101 -173 102 -9 0 -24 6 -35 13 -36 25 -189 65 -290 76 -139 16
-2440 16 -2580 0 -95 -11 -225 -44 -290 -73 -16 -8 -41 -19 -55 -25 -78 -36
-203 -127 -282 -206 -43 -43 -78 -81 -78 -85 0 -4 -14 -25 -31 -46 -18 -22
-40 -57 -51 -79 -10 -22 -23 -47 -28 -55 -43 -71 -80 -191 -91 -290 -12 -108
-39 -279 -49 -305 -13 -35 -99 -122 -148 -152 l-47 -28 -795 0 c-741 0 -797 1
-820 18 -13 9 -30 17 -37 17 -16 0 -52 16 -84 38 -14 9 -39 26 -56 37 -33 22
-133 137 -133 153 0 5 -6 15 -14 21 -8 7 -18 27 -22 44 -3 18 -13 45 -21 61
-8 15 -19 71 -24 122 -5 52 -13 103 -18 113 -6 9 -14 70 -20 134 -6 64 -15
125 -20 135 -6 11 -13 61 -16 113 -4 52 -13 117 -20 144 -8 28 -18 101 -24
163 -6 62 -15 120 -20 130 -5 9 -12 60 -16 112 -4 52 -13 118 -20 145 -7 28
-16 88 -20 135 -3 47 -12 108 -20 135 -7 28 -16 88 -19 135 -4 47 -13 108 -20
135 -8 28 -17 91 -21 140 -3 50 -12 113 -20 140 -7 28 -16 89 -20 137 -3 49
-12 109 -19 135 -8 27 -16 85 -20 130 -3 46 -13 111 -22 145 -13 49 -17 109
-18 263 -1 186 1 205 23 270 56 160 130 284 236 392 96 99 274 213 330 213 9
0 29 7 43 15 46 26 199 42 413 44 180 1 208 -1 213 -15z m1356 -10 c6 -15 10
-290 10 -712 0 -638 -2 -689 -18 -710 l-17 -22 -345 2 -344 3 -13 25 c-16 31
-19 1373 -3 1414 l10 26 355 0 355 0 10 -26z m8001 -2146 c62 -10 75 -16 120
-58 l49 -46 -2 -946 -3 -945 -25 -27 c-14 -15 -34 -32 -45 -37 -11 -5 -31 -16
-45 -24 -30 -17 -171 -20 -201 -5 -19 10 -19 33 -19 1037 0 941 1 1028 17
1045 19 21 56 23 154 6z m-8966 -3013 c-1 -426 -2 -453 -21 -501 -21 -54 -30
-67 -84 -121 -57 -56 -66 -63 -81 -63 -8 0 -31 -9 -52 -20 -27 -15 -56 -20
-110 -20 -53 0 -83 5 -112 20 -22 11 -45 20 -52 20 -17 0 -153 134 -153 151 0
8 -8 28 -18 44 -15 27 -17 73 -20 473 -2 329 0 448 9 458 10 12 69 14 353 12
l341 -3 0 -450z m7812 -3220 c59 -32 115 -86 151 -145 25 -42 27 -53 27 -160
-1 -113 -1 -116 -33 -162 -39 -56 -104 -115 -149 -134 -28 -12 -781 -14 -4990
-12 l-4958 3 -35 25 c-50 35 -100 82 -100 94 0 5 -7 17 -16 27 -8 9 -23 48
-33 86 -16 61 -16 75 -4 138 8 39 23 84 33 100 28 45 101 112 151 140 l44 24
4932 1 4932 0 48 -25z"/>
<path d="M15330 16575 c-58 -13 -127 -31 -155 -41 -56 -20 -188 -88 -221 -113
-12 -9 -32 -23 -44 -31 -68 -46 -130 -105 -196 -187 -41 -50 -74 -95 -74 -99
0 -4 -6 -15 -14 -23 -15 -19 -46 -77 -74 -141 -67 -154 -92 -332 -73 -527 16
-176 69 -327 170 -478 50 -76 199 -231 271 -282 60 -42 237 -133 260 -133 11
0 21 -4 24 -9 3 -4 34 -14 68 -20 35 -7 81 -16 103 -21 70 -16 178 -20 255
-11 114 14 232 39 243 50 6 6 18 11 26 11 14 0 112 42 141 60 8 6 24 14 36 19
34 15 106 67 159 115 28 25 53 46 56 46 8 0 104 118 150 185 57 83 106 195
146 335 26 92 26 435 0 494 -9 21 -17 48 -17 59 0 20 -13 51 -71 170 -49 98
-59 117 -78 136 -9 10 -23 28 -31 40 -50 75 -225 232 -305 274 -264 137 -506
176 -755 122z m347 -614 c10 -5 41 -20 68 -32 67 -30 171 -131 200 -194 62
-130 61 -307 -1 -419 -55 -98 -134 -168 -244 -213 -77 -32 -232 -33 -317 -1
-67 25 -172 105 -206 157 -49 74 -55 89 -77 179 -22 90 -22 93 -5 164 32 134
79 210 177 285 49 39 129 75 188 87 37 7 197 -2 217 -13z"/>
</g>
</svg>
